<?xml version="1.0" encoding="UTF-8" standalone="no"?>
<!-- Created with Inkscape (http://www.inkscape.org/) -->

<svg
   width="32"
   height="32"
   viewBox="0 0 32 32"
   version="1.1"
   id="svg1"
   inkscape:version="1.3.1 (9b9bdc1480, 2023-11-25, custom)"
   sodipodi:docname="logo.svg"
   xmlns:inkscape="http://www.inkscape.org/namespaces/inkscape"
   xmlns:sodipodi="http://sodipodi.sourceforge.net/DTD/sodipodi-0.dtd"
   xmlns="http://www.w3.org/2000/svg"
   xmlns:svg="http://www.w3.org/2000/svg">
  <sodipodi:namedview
     id="namedview1"
     pagecolor="#505050"
     bordercolor="#ffffff"
     borderopacity="1"
     inkscape:showpageshadow="0"
     inkscape:pageopacity="0"
     inkscape:pagecheckerboard="1"
     inkscape:deskcolor="#505050"
     inkscape:document-units="px"
     inkscape:zoom="17.103145"
     inkscape:cx="13.886335"
     inkscape:cy="14.85107"
     inkscape:window-width="1850"
     inkscape:window-height="1016"
     inkscape:window-x="0"
     inkscape:window-y="0"
     inkscape:window-maximized="1"
     inkscape:current-layer="layer1" />
  <defs
     id="defs1">
    <marker
       style="overflow:visible"
       id="ColoredSquare"
       refX="0"
       refY="0"
       orient="auto"
       inkscape:stockid="Colored square"
       markerWidth="1"
       markerHeight="1"
       viewBox="0 0 1 1"
       inkscape:isstock="true"
       inkscape:collect="always"
       preserveAspectRatio="xMidYMid">
      <path
         transform="scale(0.5)"
         style="fill:context-fill;fill-rule:evenodd;stroke:context-stroke;stroke-width:2"
         d="M -5,-5 V 5 H 5 V -5 Z"
         id="path21" />
    </marker>
    <marker
       style="overflow:visible"
       id="Club"
       refX="0"
       refY="0"
       orient="auto-start-reverse"
       inkscape:stockid="Club"
       markerWidth="1"
       markerHeight="1"
       viewBox="0 0 1 1"
       inkscape:isstock="true"
       inkscape:collect="always"
       preserveAspectRatio="xMidYMid">
      <path
         transform="scale(-0.5)"
         style="fill:context-stroke;fill-rule:evenodd;stroke:context-stroke"
         d="m -1.5971367,-7.0977635 c -1.8892507,0 -3.426382,1.5371314 -3.426382,3.4263822 0,0.6566798 0.2383531,1.2269257 0.5594092,1.7481542 -0.038751,0.032111 -0.079672,0.058463 -0.1165436,0.093235 -0.6224234,-0.8549928 -1.5893983,-1.4451409 -2.7271199,-1.4451409 -1.8892515,-1e-7 -3.426382,1.5371314 -3.426382,3.42638214 0,1.88925076 1.5371305,3.42638216 3.426382,3.42638216 0.9934462,0 1.868619,-0.4420611 2.4940326,-1.1188187 -0.124687,0.3548915 -0.2097783,0.7214874 -0.2097783,1.1188187 0,1.8892506 1.5371313,3.4263822 3.426382,3.4263822 1.88925064,0 3.4263821,-1.5371316 3.4263821,-3.4263822 0,-0.7933959 -0.3155586,-1.4938285 -0.7691878,-2.0744763 C 2.4152718,1.7663868 3.7718375,2.2973711 4.7661444,3.8340272 4.0279463,3.0958289 3.5540908,1.7534117 3.5540908,-0.05852936 l -0.6293354,-0.04661745 0.5827179,-0.0233087 c 0,-1.81194109 0.4505466,-3.15435829 1.188745,-3.89255659 -0.9590906,1.4822308 -2.2571634,2.0263625 -3.5662345,2.3075635 0.4041964,-0.5619092 0.6992616,-1.213407 0.6992616,-1.9579327 0,-1.8892506 -1.53713146,-3.4263822 -3.4263821,-3.4263822 z"
         id="path30" />
    </marker>
  </defs>
  <g
     inkscape:label="Layer 1"
     inkscape:groupmode="layer"
     id="layer1">
    <ellipse
       style="fill:#c084fc;stroke:#581c87;stroke-opacity:1;marker-mid:url(#Club);paint-order:normal;marker-start:url(#ColoredSquare);stroke-linecap:butt;stroke-linejoin:bevel;fill-rule:nonzero"
       id="path6"
       cx="16.059916"
       cy="15.925792"
       rx="15.959464"
       ry="15.903504" />
    <text
       xml:space="preserve"
       style="font-style:normal;font-variant:normal;font-weight:normal;font-stretch:normal;font-size:20px;font-family:Purisa;-inkscape-font-specification:Purisa;fill:#c084fc;fill-rule:nonzero;stroke:#581c87;stroke-linecap:butt;stroke-linejoin:bevel;stroke-opacity:1;paint-order:normal"
       x="8.1592026"
       y="23.159042"
       id="text12"
       inkscape:label="d"><tspan
         sodipodi:role="line"
         id="tspan12"
         x="8.1592026"
         y="23.159042"
         style="font-style:normal;font-variant:normal;font-weight:normal;font-stretch:normal;font-size:20px;font-family:Purisa;-inkscape-font-specification:Purisa">D</tspan></text>
  </g>
</svg>
